{
	"asset":{
		"generator":"Khronos glTF Blender I/O v4.0.44",
		"version":"2.0"
	},
	"scene":0,
	"scenes":[
		{
			"name":"Scene",
			"nodes":[
				0
			]
		}
	],
	"nodes":[
		{
			"mesh":0,
			"name":"Plane"
		}
	],
	"meshes":[
		{
			"name":"Plane",
			"primitives":[
				{
					"attributes":{
						"POSITION":0,
						"NORMAL":1,
						"TEXCOORD_0":2
					},
					"indices":3
				}
			]
		}
	],
	"accessors":[
		{
			"bufferView":0,
			"componentType":5126,
			"count":5706,
			"max":[
				8.840201377868652,
				1.6803572177886963,
				8.840201377868652
			],
			"min":[
				-8.535367012023926,
				0,
				-8.840201377868652
			],
			"type":"VEC3"
		},
		{
			"bufferView":1,
			"componentType":5126,
			"count":5706,
			"type":"VEC3"
		},
		{
			"bufferView":2,
			"componentType":5126,
			"count":5706,
			"type":"VEC2"
		},
		{
			"bufferView":3,
			"componentType":5123,
			"count":24576,
			"type":"SCALAR"
		}
	],
	"bufferViews":[
		{
			"buffer":0,
			"byteLength":68472,
			"byteOffset":0,
			"target":34962
		},
		{
			"buffer":0,
			"byteLength":68472,
			"byteOffset":68472,
			"target":34962
		},
		{
			"buffer":0,
			"byteLength":45648,
			"byteOffset":136944,
			"target":34962
		},
		{
			"buffer":0,
			"byteLength":49152,
			"byteOffset":182592,
			"target":34963
		}
	],
	"buffers":[
		{
			"byteLength":231744,
			"uri":"map.bin"
		}
	]
}
